REM DIRINDEX 1\2\6,1\2\7,1\2\8,1\2\9,1\3\10,1\3\11,1\4\12,1\4\13,1\4\14,1\5\15,1\5\16,1\5\17
REM DIRNAME folder01,folder02,folder03,folder04,folder05,folder06,folder07,folder08,folder09,folder10,folder11,folder12,folder13,folder14,folder15,folder16,folder17
TITLE ""
FILE "1400_2_sec08_0735_0751.mp3" MP3
  TRACK 01 AUDIO
    TITLE "0:"
    INDEX 01 00:00:00
  TRACK 02 AUDIO
    TITLE "13:cjc029_3066"
    INDEX 01 00:00:19
  TRACK 03 AUDIO
    TITLE "0:"
    INDEX 01 00:01:46
  TRACK 04 AUDIO
    TITLE "14:cjc029_3067"
    INDEX 01 00:01:52
  TRACK 05 AUDIO
    TITLE "0:"
    INDEX 01 00:03:66
  TRACK 06 AUDIO
    TITLE "13:cjc029_3068"
    INDEX 01 00:04:48
  TRACK 07 AUDIO
    TITLE "0:"
    INDEX 01 00:06:24
  TRACK 08 AUDIO
    TITLE "14:cjc029_3069"
    INDEX 01 00:06:28
  TRACK 09 AUDIO
    TITLE "0:"
    INDEX 01 00:09:00
  TRACK 10 AUDIO
    TITLE "13:cjc029_3070"
    INDEX 01 00:09:63
  TRACK 11 AUDIO
    TITLE "0:"
    INDEX 01 00:10:65
  TRACK 12 AUDIO
    TITLE "14:cjc029_3071"
    INDEX 01 00:10:68
  TRACK 13 AUDIO
    TITLE "0:"
    INDEX 01 00:11:74
  TRACK 14 AUDIO
    TITLE "13:cjc029_3072"
    INDEX 01 00:12:61
  TRACK 15 AUDIO
    TITLE "0:"
    INDEX 01 00:13:67
  TRACK 16 AUDIO
    TITLE "14:cjc029_3073"
    INDEX 01 00:13:73
  TRACK 17 AUDIO
    TITLE "0:"
    INDEX 01 00:17:74
  TRACK 18 AUDIO
    TITLE "13:cjc029_3074"
    INDEX 01 00:18:64
  TRACK 19 AUDIO
    TITLE "0:"
    INDEX 01 00:19:69
  TRACK 20 AUDIO
    TITLE "14:cjc029_3075"
    INDEX 01 00:19:71
  TRACK 21 AUDIO
    TITLE "0:"
    INDEX 01 00:20:73
  TRACK 22 AUDIO
    TITLE "13:cjc029_3076"
    INDEX 01 00:21:55
  TRACK 23 AUDIO
    TITLE "0:"
    INDEX 01 00:22:62
  TRACK 24 AUDIO
    TITLE "14:cjc029_3077"
    INDEX 01 00:22:68
  TRACK 25 AUDIO
    TITLE "0:"
    INDEX 01 00:24:31
  TRACK 26 AUDIO
    TITLE "13:cjc029_3078"
    INDEX 01 00:25:13
  TRACK 27 AUDIO
    TITLE "0:"
    INDEX 01 00:26:28
  TRACK 28 AUDIO
    TITLE "14:cjc029_3079"
    INDEX 01 00:26:36
  TRACK 29 AUDIO
    TITLE "0:"
    INDEX 01 00:29:38
  TRACK 30 AUDIO
    TITLE "13:cjc029_3080"
    INDEX 01 00:30:22
  TRACK 31 AUDIO
    TITLE "0:"
    INDEX 01 00:31:67
  TRACK 32 AUDIO
    TITLE "14:cjc029_3081"
    INDEX 01 00:31:71
  TRACK 33 AUDIO
    TITLE "0:"
    INDEX 01 00:35:49
  TRACK 34 AUDIO
    TITLE "12:cjc029_3082"
    INDEX 01 00:37:22
  TRACK 35 AUDIO
    TITLE "0:"
    INDEX 01 00:38:53
  TRACK 36 AUDIO
    TITLE "13:cjc029_3083"
    INDEX 01 00:39:58
  TRACK 37 AUDIO
    TITLE "0:"
    INDEX 01 00:41:22
  TRACK 38 AUDIO
    TITLE "14:cjc029_3084"
    INDEX 01 00:41:26
  TRACK 39 AUDIO
    TITLE "0:"
    INDEX 01 00:42:43
  TRACK 40 AUDIO
    TITLE "13:cjc029_3085"
    INDEX 01 00:43:29
  TRACK 41 AUDIO
    TITLE "0:"
    INDEX 01 00:44:52
  TRACK 42 AUDIO
    TITLE "14:cjc029_3086"
    INDEX 01 00:44:60
  TRACK 43 AUDIO
    TITLE "0:"
    INDEX 01 00:47:40
  TRACK 44 AUDIO
    TITLE "13:cjc029_3087"
    INDEX 01 00:48:18
  TRACK 45 AUDIO
    TITLE "0:"
    INDEX 01 00:49:49
  TRACK 46 AUDIO
    TITLE "14:cjc029_3088"
    INDEX 01 00:49:55
  TRACK 47 AUDIO
    TITLE "0:"
    INDEX 01 00:52:12
  TRACK 48 AUDIO
    TITLE "13:cjc029_3089"
    INDEX 01 00:52:73
  TRACK 49 AUDIO
    TITLE "0:"
    INDEX 01 00:54:23
  TRACK 50 AUDIO
    TITLE "14:cjc029_3090"
    INDEX 01 00:54:27
  TRACK 51 AUDIO
    TITLE "0:"
    INDEX 01 00:56:43
  TRACK 52 AUDIO
    TITLE "13:cjc029_3091"
    INDEX 01 00:57:21
  TRACK 53 AUDIO
    TITLE "0:"
    INDEX 01 00:58:46
  TRACK 54 AUDIO
    TITLE "14:cjc029_3092"
    INDEX 01 00:58:54
  TRACK 55 AUDIO
    TITLE "0:"
    INDEX 01 00:59:73
  TRACK 56 AUDIO
    TITLE "13:cjc029_3093"
    INDEX 01 01:00:53
  TRACK 57 AUDIO
    TITLE "0:"
    INDEX 01 01:01:68
  TRACK 58 AUDIO
    TITLE "14:cjc029_3094"
    INDEX 01 01:01:72
  TRACK 59 AUDIO
    TITLE "0:"
    INDEX 01 01:02:65
  TRACK 60 AUDIO
    TITLE "13:cjc029_3095"
    INDEX 01 01:03:47
  TRACK 61 AUDIO
    TITLE "0:"
    INDEX 01 01:05:01
  TRACK 62 AUDIO
    TITLE "14:cjc029_3096"
    INDEX 01 01:05:05
  TRACK 63 AUDIO
    TITLE "0:"
    INDEX 01 01:06:14
  TRACK 64 AUDIO
    TITLE "13:cjc029_3097"
    INDEX 01 01:07:00
  TRACK 65 AUDIO
    TITLE "0:"
    INDEX 01 01:08:19
  TRACK 66 AUDIO
    TITLE "14:cjc029_3098"
    INDEX 01 01:08:25
  TRACK 67 AUDIO
    TITLE "0:"
    INDEX 01 01:09:50
  TRACK 68 AUDIO
    TITLE "13:cjc029_3099"
    INDEX 01 01:10:30
  TRACK 69 AUDIO
    TITLE "0:"
    INDEX 01 01:11:43
  TRACK 70 AUDIO
    TITLE "14:cjc029_3100"
    INDEX 01 01:11:45
  TRACK 71 AUDIO
    TITLE "0:"
    INDEX 01 01:13:55
